<svg id="Layer_1" data-name="Layer 1" xmlns="http://www.w3.org/2000/svg" viewBox="0 0 693.23 200.54"><defs><style>.cls-1{fill:#74afb4;}</style></defs><title>logo-outline</title><path class="cls-1" d="M338.22,288.18H315.29v-41h0c0-2.29-2.28-4.15-5.09-4.15H70.09c-2.81,0-5.09,1.86-5.09,4.15h0V370.24h0c0,2.29,2.28,4.15,5.09,4.15H310.2c2.81,0,5.09-1.86,5.09-4.15h0V325.58h22.93c2.81,0,5.09-1.86,5.09-4.16V292.34C343.32,290,341,288.18,338.22,288.18ZM286,350.51H94.93V267.4H286Z" transform="translate(-65 -207.78)"/><polygon class="cls-1" points="158.51 71.26 44.38 71.26 44.38 130.57 129.98 130.57 158.51 71.26"/><path class="cls-1" d="M361.1,244.73c0-18.16-.38-32.13-1.27-36.7,1.65.13,3.94.26,5.72.26,4.7,0,10.92-.51,17.27-.51,21.59,0,26.92,12.82,26.92,22.22a23.34,23.34,0,0,1-12.19,20.45c10.67,3.17,20.83,11.05,20.83,25.53s-10.54,28.57-33,28.57c-8.76,0-14.86-.76-17.78-.89a69.72,69.72,0,0,0-7.37.13c.51-5.08.89-20.19.89-36.7Zm10.67,3.18a.64.64,0,0,0,.51.63c2.41.13,12.7.26,14.73.26,2.29,0,3.3-.13,4.83-1.14,5.2-3.43,7.74-9.53,7.74-15.12,0-10.79-6.6-18-19.43-18a41.45,41.45,0,0,0-8,.51.77.77,0,0,0-.38.76Zm26.8,12.57c-4.45-3.55-9.78-4.44-15.12-4.7-4.06-.25-10-.25-11.17-.12-.38.12-.51.25-.51.5v10.93c0,22,.25,27.43.64,27.94,1.27,1.27,6.22,2.54,13.46,2.54,10.79,0,21.08-6.23,21.08-20.07C407,271.79,405.68,265.94,398.57,260.48Z" transform="translate(-65 -207.78)"/><path class="cls-1" d="M433.62,253.5c0-15.37-.25-27.43-1.4-31.12a42.14,42.14,0,0,0,5.59.26c2.16,0,11.05-.51,15.11-.51,8,0,15.24,1,20.07,3.94a20.44,20.44,0,0,1,9.91,17.78c0,9.27-4.7,16.89-13.59,22.86,7.11,9.14,15.11,19.81,22.73,27.93,4.7,5.08,8.38,7.88,10.29,8.77-1.4.63-5,.89-7.62.89-5.59,0-8.26-1.27-12.7-5.85-6.23-6-16.51-21.08-21.47-27.55a1.8,1.8,0,0,0-1.52-.77h-14.6c-.39,0-.51,0-.51.39v3.42c0,13.47.51,25,1,29.85a28.54,28.54,0,0,0-5.2-.26,54.57,54.57,0,0,0-7.12.39c.51-3.94,1-17.4,1-31.37Zm10.29,8.76c0,.64.12.76.38.76a77.54,77.54,0,0,0,13.46.89c3.3,0,5.08-.38,6.35-1.27a19.08,19.08,0,0,0,8.25-16c0-11.43-7.62-18.29-19.93-18.29a43.11,43.11,0,0,0-8.13.51c-.38.13-.38.25-.38.76Z" transform="translate(-65 -207.78)"/><path class="cls-1" d="M519.85,276.23c-.25,0-.51,0-.51.25-3.43,9.27-8.38,22.23-9.65,27.31a22.84,22.84,0,0,0-4.82-.26,59,59,0,0,0-6.48.39c2.79-5.72,7-15.24,11.68-26l21.85-52.58c1.52-3.3,2.16-4.57,2.79-4.57s1.14.89,2.79,4.57c1.27,2.67,12.32,26.93,22.36,48.77,5.2,11.56,11.43,25.4,14.35,29.72-2.16-.13-4.32-.26-5.59-.26a64.19,64.19,0,0,0-8,.39c-1.78-5-7.62-18.93-11.18-27.44-.13-.25-.13-.25-.51-.25Zm26.42-6.86c.38,0,.38-.12.38-.38l-13-30.35L522,269c-.13.26-.13.38.25.38Z" transform="translate(-65 -207.78)"/><path class="cls-1" d="M584,253.5c0-15.37-.38-28.2-1.15-31,1.15.13,3.56.13,5.21.13a62.39,62.39,0,0,0,7.24-.38c-.25,3.93-.76,16-.76,31.24v19.05c0,13.59.25,28.06,1,31.24-1-.13-3.42-.26-5.33-.26-2.54,0-6,.26-7.11.39.51-3.81.89-17.4.89-31.37Z" transform="translate(-65 -207.78)"/><path class="cls-1" d="M624.5,303.53c-1.14,0-5.21.26-5.84.39.76-9.15,1.14-57.66,1.14-76.84,0-5.84.26-6.35,1-6.35.51,0,1.39.89,3.68,3.05,10.92,10.79,48,52.58,58.17,60.83-.13-16.25-.51-50.42-1.4-62.23a41.78,41.78,0,0,0,4.57.26,56.49,56.49,0,0,0,6.22-.38c-.63,6.47-1.27,34.16-1.39,54.73,0,7,.12,17.53.12,22.1,0,5.71-.25,6.35-.89,6.35s-2.28-1.27-9.39-8.13c-9.66-9-41.66-45.34-52.33-56.64.13,23,.38,54.61,1.4,63.12A33.26,33.26,0,0,0,624.5,303.53Z" transform="translate(-65 -207.78)"/><path class="cls-1" d="M361.1,347.73c0-18.16-.38-32.13-1.27-36.7,1.65.13,3.94.26,5.72.26,4.7,0,10.92-.51,17.27-.51,21.59,0,26.92,12.82,26.92,22.22a23.34,23.34,0,0,1-12.19,20.45c10.67,3.17,20.83,11.05,20.83,25.53s-10.54,28.57-33,28.57c-8.76,0-14.86-.76-17.78-.89a72.5,72.5,0,0,0-7.37.13c.51-5.08.89-20.19.89-36.7Zm10.67,3.18a.64.64,0,0,0,.51.63c2.41.13,12.7.26,14.73.26,2.29,0,3.3-.13,4.83-1.14,5.2-3.43,7.74-9.53,7.74-15.12,0-10.79-6.6-18-19.43-18a41.45,41.45,0,0,0-8,.51.77.77,0,0,0-.38.76Zm26.8,12.57c-4.45-3.55-9.78-4.44-15.12-4.7-4.06-.25-10-.25-11.17-.12-.38.12-.51.25-.51.5v10.93c0,22,.25,27.43.64,27.94,1.27,1.27,6.22,2.54,13.46,2.54,10.79,0,21.08-6.23,21.08-20.07C407,374.79,405.68,368.94,398.57,363.48Z" transform="translate(-65 -207.78)"/><path class="cls-1" d="M433.62,356.5c0-15.37-.25-27.43-1.4-31.12a42.14,42.14,0,0,0,5.59.26c2.16,0,11.05-.51,15.11-.51,8,0,15.24,1,20.07,3.94a20.44,20.44,0,0,1,9.91,17.78c0,9.27-4.7,16.89-13.59,22.86,7.11,9.14,15.11,19.81,22.73,27.93,4.7,5.08,8.38,7.88,10.29,8.77-1.4.63-5,.89-7.62.89-5.59,0-8.26-1.27-12.7-5.84-6.23-6-16.51-21.09-21.47-27.56a1.8,1.8,0,0,0-1.52-.77h-14.6c-.39,0-.51,0-.51.39v3.42c0,13.47.51,25,1,29.85a29.67,29.67,0,0,0-5.2-.25,54.78,54.78,0,0,0-7.12.38c.51-3.94,1-17.4,1-31.37Zm10.29,8.76c0,.64.12.76.38.76a77.54,77.54,0,0,0,13.46.89c3.3,0,5.08-.38,6.35-1.27a19.08,19.08,0,0,0,8.25-16c0-11.43-7.62-18.29-19.93-18.29a43.11,43.11,0,0,0-8.13.51c-.38.13-.38.25-.38.76Z" transform="translate(-65 -207.78)"/><path class="cls-1" d="M507.28,356.5c0-17.53-.51-28.07-1.27-31.12a58.43,58.43,0,0,0,7.24.26H538.4a50.83,50.83,0,0,0,9-.64,76.82,76.82,0,0,0-.76,9.65c-1.52-.89-3.81-1.39-9.27-1.9-3.56-.13-10.16-.38-19.3-.38-.13,0-.39,0-.39.38v26.92c0,.38.13.64.39.64,1.65,0,14.47,0,17.77-.13,6-.25,8.51-.51,9.78-.89a52.42,52.42,0,0,0-1,9.65c-1.53-.76-3.43-1.27-7.75-1.65-3.81-.25-16.64-.38-18.79-.38-.26,0-.39.26-.39.51v7.24c0,20.95.26,23.87.77,24.38a7,7,0,0,0,2.41.64c2.67.25,6.22.5,11,.5,10.29,0,15.37-.76,18.67-2.15a60.61,60.61,0,0,0-2.29,8.89c-.38.12-1.65.25-5.84.25-15.37,0-23.88-.63-28.58-.63-3.42,0-6.22.12-7.62.25.39-3.81,1-16,1-31.24Z" transform="translate(-65 -207.78)"/><path class="cls-1" d="M578.4,379.23c-.26,0-.51,0-.51.25-3.43,9.27-8.38,22.23-9.65,27.31a23.85,23.85,0,0,0-4.83-.25,59.86,59.86,0,0,0-6.48.38c2.8-5.72,7-15.24,11.69-26l21.84-52.58c1.53-3.3,2.16-4.57,2.8-4.57s1.14.89,2.79,4.57c1.27,2.67,12.32,26.93,22.35,48.77,5.21,11.56,11.43,25.4,14.35,29.72-2.16-.13-4.32-.25-5.59-.25a64.63,64.63,0,0,0-8,.38c-1.77-5-7.62-18.93-11.17-27.44-.13-.25-.13-.25-.51-.25Zm26.41-6.86c.38,0,.38-.12.38-.38l-13-30.35L580.56,372c-.13.26-.13.38.25.38Z" transform="translate(-65 -207.78)"/><path class="cls-1" d="M642.53,356.5c0-15.37-.38-28.32-1.14-31.12a31,31,0,0,0,5.21.26,48.33,48.33,0,0,0,7.24-.38c-.26,4.06-.77,16-.77,31.24v19.05c0,13.59.26,28.06,1,31.24a43.55,43.55,0,0,0-4.83-.25,62.05,62.05,0,0,0-7.62.38c.51-3.69.89-17.4.89-31.37Zm52.2-30.86c4.32,0,8.13-.26,10.16-.38-1.91,1.39-6.22,4.19-14.86,12.7-3.81,3.81-22.61,22.09-25.15,24.76,6.74,7.75,22.61,23.88,29.47,30.61,10.29,9.78,14.73,12.19,16.64,12.82-.89.77-4.32,1-6.86,1-7.5,0-11.69-1.4-19.18-9.53-10.41-10-21.08-22.6-30.48-33a.62.62,0,0,1,0-.89,306.56,306.56,0,0,0,24.64-24.9,118.12,118.12,0,0,0,11.56-13.46A30.26,30.26,0,0,0,694.73,325.64Z" transform="translate(-65 -207.78)"/><path class="cls-1" d="M713,392.44a24.87,24.87,0,0,0,18.93,8.76c10.28,0,15.49-6.22,15.49-13.84,0-6.48-2.28-10.67-11.81-16.77L730,367c-11.81-7.62-14.86-14.73-14.86-22.35,0-11.43,9-21,24.64-21a58.85,58.85,0,0,1,10.92,1c3,.51,5,.76,5.85.89a61.9,61.9,0,0,0-1,11.17c-2-2.54-7.49-6.22-16.38-6.22-8.26,0-13.85,4.7-13.85,11.81,0,5.59,1.4,9.53,11.31,16l5.46,3.43c13.46,8.51,16.13,15,16.13,23.37a23.76,23.76,0,0,1-10.16,18.67c-5.08,3.3-11.81,4.44-17.4,4.44-7.24,0-14.73-1.9-18.54-4.44A68.33,68.33,0,0,0,713,392.44Z" transform="translate(-65 -207.78)"/></svg>